<svg xmlns="http://www.w3.org/2000/svg" viewBox="0 0 24 24" width="512" height="512">
  <rect width="24" height="24" rx="4" fill="#1e1e1e"/>
  <g transform="translate(24,0) scale(-1,1)"><path d="M20 1.4H4A2.6 2.6 0 0 0 1.4 4v16A2.6 2.6 0 0 0 4 22.6h16a2.6 2.6 0 0 0 2.6-2.6V4A2.6 2.6 0 0 0 20 1.4zM11.4 20a1.4 1.4 0 0 1-1.4 1.4H4A1.4 1.4 0 0 1 2.6 20v-6A1.4 1.4 0 0 1 4 12.6h6a1.4 1.4 0 0 1 1.4 1.4zm10 0a1.4 1.4 0 0 1-1.4 1.4h-7.82a2.58 2.58 0 0 0 .42-1.4v-6a2.6 2.6 0 0 0-2.6-2.6H4a2.58 2.58 0 0 0-1.4.42V4A1.4 1.4 0 0 1 4 2.6h16A1.4 1.4 0 0 1 21.4 4zM18.82 5.18a.6.6 0 0 1 0 .85L15.45 9.4h1.35a.6.6 0 0 1 0 1.2H14a.6.6 0 0 1-.6-.6V7.2a.6.6 0 1 1 1.2 0v1.35L18 5.18a.6.6 0 0 1 .82 0z" fill="#72e672" stroke="#72e672" stroke-width="0.9" stroke-linejoin="round"/></g>
</svg>
